# xmcd CD database file
#
# Track frame offsets:
#	22152
#	38600
#	53417
#	64830
#	82340
#	96975
#	121215
#	141112
#	160695
#	177287
#
# Disc length: 2720 seconds
#
# Revision: 0
# Processed by: cddbd v1.4b42PL1 Copyright (c) Steve Scherf et al.
# Submitted via: CDex 1.40Beta8
#
DISCID=8d09790a
DTITLE=Menlo Park - Menlo Park
DYEAR=2000
DGENRE=Country
TTITLE0=Cochon cochon
TTITLE1=Wave Goodbye Whore
TTITLE2=Priscilla Jones
TTITLE3=Aeroplane
TTITLE4=Le Butch
TTITLE5=Slowgirl
TTITLE6=Neighbourhood
TTITLE7=Eating You
TTITLE8=Paraplegic Dancer
TTITLE9=Double Trouble
EXTD=YEAR: 2000 ID3G: 2
EXTT0=
EXTT1=
EXTT2=
EXTT3=
EXTT4=
EXTT5=
EXTT6=
EXTT7=
EXTT8=
EXTT9=
PLAYORDER=
